<svg xmlns="http://www.w3.org/2000/svg" xmlns:v="https://svgstorm.com" viewBox="189.85 193.74 590.3 587.41">
<g fill="None" fill-opacity="0.0" stroke="#F3F3F3" stroke-opacity="1.00" stroke-width="0.3">
</g>
<g fill="None" fill-opacity="0.0" stroke="#F6DDBB" stroke-opacity="1.00" stroke-width="0.3"><path d=" M 483.00 208.00  C 490.40 203.51 497.94 199.01 506.00 196.00 C 494.22 221.55 481.25 247.16 483.00 277.00 C 489.96 275.89 494.68 268.49 502.00 268.00 C 499.23 277.55 495.49 287.49 493.00 297.00 C 491.98 306.14 489.41 317.82 499.07 320.93 C 508.73 324.04 513.39 325.58 522.00 330.00 C 523.35 330.69 524.70 331.25 526.00 332.00 C 517.93 322.03 504.26 322.42 494.00 316.00 C 492.16 297.87 500.40 282.50 504.00 266.00 C 496.37 265.24 491.63 272.16 485.00 274.00 C 484.99 266.70 484.60 256.51 487.07 250.07 C 489.54 243.64 490.12 239.14 492.07 232.07 C 494.03 225.01 497.63 221.81 500.01 215.01 C 502.38 208.21 505.27 205.02 508.75 197.75 C 512.23 190.48 503.28 195.19 498.08 198.08 C 492.87 200.96 487.68 204.41 483.00 208.00 Z" data-index="1" style="visibility: hidden;"/>
</g>
<g fill="None" fill-opacity="0.0" stroke="#ED9533" stroke-opacity="1.00" stroke-width="0.3"><path d=" M 483.00 208.00  C 455.26 224.82 428.40 248.89 411.00 277.00 C 403.85 288.55 398.01 301.20 392.00 313.00 C 391.94 313.49 392.11 314.52 392.00 315.00 C 399.90 298.30 408.11 282.56 420.00 268.00 C 422.57 270.61 426.80 269.03 430.00 268.00 C 419.33 261.41 440.13 265.42 433.00 260.00 C 437.38 262.78 441.45 261.29 446.00 260.00 C 445.81 263.48 441.09 262.83 441.00 266.00 C 444.91 266.64 448.01 269.12 451.00 265.00 C 453.32 273.22 461.90 264.63 464.00 263.00 C 466.90 267.06 461.46 266.82 461.00 270.00 C 464.39 270.28 468.39 271.19 472.00 268.00 C 473.12 271.39 475.28 272.26 474.00 276.00 C 475.72 274.30 479.29 275.97 480.00 273.00 C 473.72 274.79 478.57 271.98 481.00 270.00 C 480.54 276.16 491.17 289.22 494.00 283.00 C 496.44 287.67 491.77 291.88 493.00 297.00 C 495.49 287.49 499.23 277.55 502.00 268.00 C 494.68 268.49 489.96 275.89 483.00 277.00 C 481.25 247.16 494.22 221.55 506.00 196.00 C 497.94 199.01 490.40 203.51 483.00 208.00 Z" data-index="2"/>
</g>
<g fill="None" fill-opacity="0.0" stroke="#F4DA9B" stroke-opacity="1.00" stroke-width="0.3"><path d=" M 536.00 267.00  C 542.19 269.83 551.70 270.51 558.00 272.00 C 569.57 273.51 580.24 278.32 591.00 282.00 C 598.44 284.55 605.68 287.91 613.00 291.00 C 604.40 286.10 596.15 281.13 586.31 278.69 C 576.46 276.26 566.21 271.10 556.00 270.00 C 545.79 268.91 533.73 267.05 530.70 256.31 C 527.66 245.56 519.83 240.57 518.00 230.00 C 528.21 229.83 537.85 231.89 548.00 232.00 C 538.53 229.44 527.42 229.30 517.00 229.00 C 517.18 236.22 522.45 243.03 526.08 248.92 C 529.71 254.81 530.75 263.58 536.00 267.00 Z" data-index="3"/>
</g>
<g fill="None" fill-opacity="0.0" stroke="#F6B326" stroke-opacity="1.00" stroke-width="0.3"><path d=" M 613.00 291.00  C 616.76 292.59 620.44 295.08 624.00 297.00 C 643.00 307.25 659.78 323.39 673.25 340.75 C 686.73 358.10 701.83 379.46 707.00 401.00 C 707.57 403.39 708.04 405.71 709.00 408.00 C 709.84 410.02 712.18 412.07 711.00 415.00 C 703.37 415.74 699.97 418.01 691.99 418.99 C 684.02 419.97 690.31 424.96 695.23 428.77 C 700.15 432.58 702.24 434.87 708.23 438.77 C 714.21 442.67 713.22 444.07 721.08 448.92 C 728.94 453.77 738.64 467.92 748.00 464.00 C 756.69 442.91 769.10 422.72 776.00 401.00 C 765.00 402.85 746.57 410.46 744.33 396.67 C 742.08 382.88 735.93 376.24 730.92 365.08 C 725.91 353.92 720.38 346.11 714.75 336.25 C 709.13 326.38 702.34 319.21 695.25 310.75 C 688.16 302.29 680.91 294.83 672.75 287.25 C 664.59 279.67 655.57 274.65 646.25 268.75 C 636.92 262.86 628.07 256.91 617.69 252.31 C 607.32 247.70 596.51 242.76 585.22 239.78 C 573.93 236.80 559.97 232.81 548.00 232.00 C 537.85 231.89 528.21 229.83 518.00 230.00 C 519.83 240.57 527.66 245.56 530.70 256.31 C 533.73 267.05 545.79 268.91 556.00 270.00 C 566.21 271.10 576.46 276.26 586.31 278.69 C 596.15 281.13 604.40 286.10 613.00 291.00 Z" data-index="4"/>
</g>
<g fill="None" fill-opacity="0.0" stroke="#EB8326" stroke-opacity="1.00" stroke-width="0.3"><path d=" M 392.00 315.00  C 391.33 318.04 390.12 321.07 389.00 324.00 C 387.95 328.17 386.13 332.28 385.00 336.00 C 383.98 341.03 384.33 346.32 382.00 351.00 C 378.01 337.94 376.15 323.35 369.00 311.00 C 367.14 307.81 364.70 304.49 363.00 301.00 C 357.61 317.96 356.25 339.39 344.00 354.00 C 339.26 364.99 330.62 373.95 324.00 384.00 C 322.18 386.77 320.11 388.58 318.00 391.00 C 316.80 392.62 316.13 394.42 315.00 396.00 C 318.18 392.82 322.20 390.23 324.00 386.00 C 326.48 389.65 326.86 391.72 329.77 387.76 C 332.68 383.81 335.44 381.96 337.00 387.00 C 335.97 383.89 338.69 382.23 340.00 380.00 C 342.20 383.27 351.28 384.55 351.00 379.00 C 355.25 379.64 352.33 382.53 354.00 385.00 C 356.36 382.89 359.20 382.18 362.00 381.00 C 358.48 385.44 362.32 385.07 366.00 383.00 C 370.94 388.73 383.17 385.86 390.00 387.00 C 388.81 391.85 396.69 392.44 400.00 394.00 C 398.59 401.06 407.25 406.36 414.00 407.00 C 409.54 409.66 415.16 410.58 418.00 410.00 C 414.34 412.86 418.27 415.72 419.00 419.00 C 422.37 418.11 427.00 419.58 431.00 419.00 C 427.66 423.76 431.07 425.82 426.00 429.00 C 430.28 430.17 436.15 432.04 436.00 437.00 C 442.02 436.21 447.51 441.23 450.00 445.00 C 455.52 443.12 456.69 449.50 461.00 446.00 C 460.27 449.58 461.47 451.90 465.00 450.00 C 464.56 453.42 470.86 454.94 467.00 457.00 C 471.86 456.96 480.83 456.69 472.00 459.00 C 474.45 458.91 477.61 458.77 479.00 461.00 C 475.24 460.84 479.11 464.89 478.00 467.00 C 480.94 466.33 483.18 468.09 486.00 468.00 C 485.40 471.06 489.28 473.14 492.00 473.00 C 491.36 478.39 493.82 475.86 495.00 473.00 C 496.57 477.21 492.80 477.28 492.00 480.00 C 495.44 481.20 496.40 482.89 500.00 483.00 C 495.94 489.63 503.71 494.92 498.00 502.00 C 501.45 500.67 501.79 504.69 505.00 504.00 C 501.29 506.38 510.53 515.45 503.75 518.75 C 496.97 522.06 495.79 525.21 494.00 531.00 C 504.39 517.70 518.33 509.37 534.00 505.00 C 569.37 495.13 621.00 513.78 638.00 471.00 C 639.62 466.93 645.61 456.49 641.00 453.00 C 632.95 448.65 621.11 449.06 613.23 443.77 C 605.35 438.49 596.27 436.61 588.75 431.25 C 581.23 425.88 577.07 417.00 574.00 409.00 C 571.91 403.53 570.00 397.11 569.00 391.00 C 569.00 391.00 569.02 390.50 569.00 390.00 C 565.00 385.07 562.26 374.28 560.00 368.00 C 555.30 354.93 544.65 344.99 533.00 338.00 C 529.06 335.64 525.56 332.47 522.00 330.00 C 513.39 325.58 508.73 324.04 499.07 320.93 C 489.41 317.82 491.98 306.14 493.00 297.00 C 491.77 291.88 496.44 287.67 494.00 283.00 C 491.17 289.22 480.54 276.16 481.00 270.00 C 478.57 271.98 473.72 274.79 480.00 273.00 C 479.29 275.97 475.72 274.30 474.00 276.00 C 475.28 272.26 473.12 271.39 472.00 268.00 C 468.39 271.19 464.39 270.28 461.00 270.00 C 461.46 266.82 466.90 267.06 464.00 263.00 C 461.90 264.63 453.32 273.22 451.00 265.00 C 448.01 269.12 444.91 266.64 441.00 266.00 C 441.09 262.83 445.81 263.48 446.00 260.00 C 441.45 261.29 437.38 262.78 433.00 260.00 C 440.13 265.42 419.33 261.41 430.00 268.00 C 426.80 269.03 422.57 270.61 420.00 268.00 C 408.11 282.56 399.90 298.30 392.00 315.00 M 535.00 421.00  C 512.79 426.30 492.80 413.60 489.00 392.00 C 508.52 392.22 534.29 396.93 535.00 421.00 Z" data-index="5"/>
</g>
<g fill="None" fill-opacity="0.0" stroke="#F7ECD3" stroke-opacity="1.00" stroke-width="0.3">
</g>
<g fill="None" fill-opacity="0.0" stroke="#EABB87" stroke-opacity="1.00" stroke-width="0.3"><path d=" M 405.00 285.00  C 400.65 293.06 393.15 303.91 392.00 313.00 C 398.01 301.20 403.85 288.55 411.00 277.00 C 408.97 279.62 406.60 282.03 405.00 285.00 Z" data-index="7" style="visibility: hidden;"/>
</g>
<g fill="None" fill-opacity="0.0" stroke="#FAF1D3" stroke-opacity="1.00" stroke-width="0.3">
</g>
<g fill="None" fill-opacity="0.0" stroke="#F9E0C7" stroke-opacity="1.00" stroke-width="0.3"><path d=" M 297.00 426.00  C 300.81 416.26 307.50 403.50 315.00 396.00 C 316.13 394.42 316.80 392.62 318.00 391.00 C 319.87 388.48 322.16 386.23 324.00 384.00 C 330.62 373.95 339.26 364.99 344.00 354.00 C 351.85 335.80 359.61 317.49 362.00 298.00 C 365.17 301.88 367.64 306.26 369.00 311.00 C 376.15 323.35 378.01 337.94 382.00 351.00 C 384.33 346.32 383.98 341.03 385.00 336.00 C 385.82 331.96 387.64 327.55 389.00 324.00 C 390.12 321.07 391.33 318.04 392.00 315.00 C 392.11 314.52 391.94 313.49 392.00 313.00 C 393.15 303.91 400.65 293.06 405.00 285.00 C 392.15 301.67 387.50 322.96 382.00 343.00 C 376.80 327.90 374.13 306.25 360.00 297.00 C 360.04 304.90 356.48 312.63 354.99 319.99 C 353.51 327.36 351.27 335.11 348.92 341.92 C 346.57 348.74 341.75 353.78 338.92 359.92 C 336.09 366.07 329.77 370.38 327.32 376.32 C 324.88 382.26 318.22 387.50 314.92 391.92 C 311.63 396.35 305.35 404.60 303.80 408.75 C 302.25 412.91 294.84 423.04 297.00 426.00 Z" data-index="9" style="visibility: hidden;"/>
</g>
<g fill="None" fill-opacity="0.0" stroke="#F1D185" stroke-opacity="1.00" stroke-width="0.3"><path d=" M 707.00 401.00  C 701.83 379.46 686.73 358.10 673.25 340.75 C 659.78 323.39 643.00 307.25 624.00 297.00 C 641.97 310.10 658.19 324.52 672.75 342.25 C 687.32 359.98 697.42 380.97 707.00 401.00 Z" data-index="10"/>
</g>
<g fill="None" fill-opacity="0.0" stroke="#E4AD7D" stroke-opacity="1.00" stroke-width="0.3"><path d=" M 344.00 354.00  C 356.25 339.39 357.61 317.96 363.00 301.00 C 364.70 304.49 367.14 307.81 369.00 311.00 C 367.64 306.26 365.17 301.88 362.00 298.00 C 359.61 317.49 351.85 335.80 344.00 354.00 Z" data-index="11"/>
</g>
<g fill="None" fill-opacity="0.0" stroke="#E6B07A" stroke-opacity="1.00" stroke-width="0.3"><path d=" M 385.00 336.00  C 386.13 332.28 387.95 328.17 389.00 324.00 C 387.64 327.55 385.82 331.96 385.00 336.00 Z" data-index="12"/>
</g>
<g fill="None" fill-opacity="0.0" stroke="#E5B076" stroke-opacity="1.00" stroke-width="0.3"><path d=" M 533.00 338.00  C 530.58 336.15 528.85 333.64 526.00 332.00 C 524.70 331.25 523.35 330.69 522.00 330.00 C 525.56 332.47 529.06 335.64 533.00 338.00 Z" data-index="13"/>
</g>
<g fill="None" fill-opacity="0.0" stroke="#E6B277" stroke-opacity="1.00" stroke-width="0.3"><path d=" M 569.00 390.00  C 568.71 382.15 563.40 374.44 560.00 368.00 C 562.26 374.28 565.00 385.07 569.00 390.00 Z" data-index="14"/>
</g>
<g fill="None" fill-opacity="0.0" stroke="#E66726" stroke-opacity="1.00" stroke-width="0.3"><path d=" M 315.00 396.00  C 307.50 403.50 300.81 416.26 297.00 426.00 C 297.00 426.00 297.09 426.52 297.00 427.00 C 296.91 427.52 296.24 428.53 296.00 429.00 C 296.00 434.01 292.29 439.67 293.00 446.00 C 296.19 452.51 305.04 444.57 310.03 449.02 C 315.02 453.47 325.97 451.48 327.00 457.00 C 327.90 454.31 329.06 451.85 331.00 456.00 C 332.95 454.82 334.58 453.02 337.00 453.00 C 333.54 456.69 340.66 457.26 338.00 461.00 C 343.26 462.17 343.25 456.10 348.00 457.00 C 348.43 463.93 360.32 458.62 366.00 462.00 C 360.64 463.30 360.78 465.86 367.00 465.00 C 363.93 468.19 365.38 471.31 368.13 473.92 C 370.89 476.53 371.38 480.22 376.00 482.00 C 374.70 484.82 374.22 489.34 379.00 488.00 C 375.57 490.39 374.72 491.43 376.00 496.00 C 378.23 491.39 384.15 497.74 389.00 497.00 C 386.75 498.25 383.85 500.03 382.00 502.00 C 384.62 503.91 386.42 500.89 389.00 501.00 C 392.46 503.90 388.45 512.15 394.00 512.00 C 392.12 510.27 392.90 508.96 392.00 507.00 C 394.21 507.78 395.81 509.94 399.00 509.00 C 394.95 515.14 398.86 520.72 406.00 520.00 C 404.62 523.68 407.47 527.11 406.00 531.00 C 407.63 530.29 407.29 527.62 409.00 527.00 C 415.04 510.65 423.96 494.76 436.00 482.00 C 415.33 547.45 457.45 617.95 517.00 646.00 C 511.94 641.59 505.98 635.35 502.00 630.00 C 494.62 620.07 487.22 608.22 485.00 596.00 C 484.18 593.85 483.37 591.62 483.00 589.00 C 481.57 578.99 480.27 564.15 484.00 555.00 C 484.44 553.92 484.40 553.84 485.00 553.00 C 485.68 550.82 485.42 548.25 486.00 546.00 C 486.63 543.58 487.86 541.96 489.00 540.00 C 490.38 536.80 492.36 534.04 494.00 531.00 C 495.79 525.21 496.97 522.06 503.75 518.75 C 510.53 515.45 501.29 506.38 505.00 504.00 C 501.79 504.69 501.45 500.67 498.00 502.00 C 503.71 494.92 495.94 489.63 500.00 483.00 C 496.40 482.89 495.44 481.20 492.00 480.00 C 492.80 477.28 496.57 477.21 495.00 473.00 C 493.82 475.86 491.36 478.39 492.00 473.00 C 489.28 473.14 485.40 471.06 486.00 468.00 C 483.18 468.09 480.94 466.33 478.00 467.00 C 479.11 464.89 475.24 460.84 479.00 461.00 C 477.61 458.77 474.45 458.91 472.00 459.00 C 480.83 456.69 471.86 456.96 467.00 457.00 C 470.86 454.94 464.56 453.42 465.00 450.00 C 461.47 451.90 460.27 449.58 461.00 446.00 C 456.69 449.50 455.52 443.12 450.00 445.00 C 447.51 441.23 442.02 436.21 436.00 437.00 C 436.15 432.04 430.28 430.17 426.00 429.00 C 431.07 425.82 427.66 423.76 431.00 419.00 C 427.00 419.58 422.37 418.11 419.00 419.00 C 418.27 415.72 414.34 412.86 418.00 410.00 C 415.16 410.58 409.54 409.66 414.00 407.00 C 407.25 406.36 398.59 401.06 400.00 394.00 C 396.69 392.44 388.81 391.85 390.00 387.00 C 383.17 385.86 370.94 388.73 366.00 383.00 C 362.32 385.07 358.48 385.44 362.00 381.00 C 359.20 382.18 356.36 382.89 354.00 385.00 C 352.33 382.53 355.25 379.64 351.00 379.00 C 351.28 384.55 342.20 383.27 340.00 380.00 C 338.69 382.23 335.97 383.89 337.00 387.00 C 335.44 381.96 332.68 383.81 329.77 387.76 C 326.86 391.72 326.48 389.65 324.00 386.00 C 322.20 390.23 318.18 392.82 315.00 396.00 Z" data-index="15"/>
</g>
<g fill="None" fill-opacity="0.0" stroke="#E7AD85" stroke-opacity="1.00" stroke-width="0.3"><path d=" M 318.00 391.00  C 320.11 388.58 322.18 386.77 324.00 384.00 C 322.16 386.23 319.87 388.48 318.00 391.00 Z" data-index="16"/>
</g>
<g fill="None" fill-opacity="0.0" stroke="#EFBE8E" stroke-opacity="1.00" stroke-width="0.3"><path d=" M 574.00 409.00  C 572.36 402.49 572.06 396.85 569.00 391.00 C 570.00 397.11 571.91 403.53 574.00 409.00 Z" data-index="17"/>
</g>
<g fill="None" fill-opacity="0.0" stroke="#F7DBBA" stroke-opacity="1.00" stroke-width="0.3"><path d=" M 535.00 421.00  C 534.29 396.93 508.52 392.22 489.00 392.00 C 492.80 413.60 512.79 426.30 535.00 421.00 M 492.00 394.00  C 504.72 396.41 522.15 395.98 529.75 408.25 C 537.35 420.51 526.12 420.03 519.00 420.00 C 511.88 419.97 505.17 417.16 501.08 411.92 C 496.99 406.67 493.24 401.03 492.00 394.00 Z" data-index="18"/>
</g>
<g fill="None" fill-opacity="0.0" stroke="#F4F2F1" stroke-opacity="1.00" stroke-width="0.3">
</g>
<g fill="None" fill-opacity="0.0" stroke="#F1D089" stroke-opacity="1.00" stroke-width="0.3"><path d=" M 711.00 444.00  C 723.70 450.30 733.38 463.98 747.00 468.00 C 747.33 466.84 747.42 464.99 748.00 464.00 C 738.64 467.92 728.94 453.77 721.08 448.92 C 713.22 444.07 714.21 442.67 708.23 438.77 C 702.24 434.87 700.15 432.58 695.23 428.77 C 690.31 424.96 684.02 419.97 691.99 418.99 C 699.97 418.01 703.37 415.74 711.00 415.00 C 712.18 412.07 709.84 410.02 709.00 408.00 C 711.95 420.35 691.27 414.03 684.00 419.00 C 690.93 428.68 701.80 436.44 711.00 444.00 Z" data-index="20"/>
</g>
<g fill="None" fill-opacity="0.0" stroke="#EFBA9D" stroke-opacity="1.00" stroke-width="0.3"><path d=" M 293.00 434.00  C 293.75 432.49 295.13 430.70 296.00 429.00 C 296.24 428.53 296.91 427.52 297.00 427.00 C 294.46 428.59 293.94 431.39 293.00 434.00 Z" data-index="21"/>
</g>
<g fill="None" fill-opacity="0.0" stroke="#E35627" stroke-opacity="1.00" stroke-width="0.3"><path d=" M 293.00 434.00  C 287.21 450.07 280.92 466.82 279.00 484.00 C 278.76 486.18 278.15 489.46 278.00 491.00 C 277.97 493.00 277.99 495.00 278.00 497.00 C 278.00 498.32 278.09 499.68 278.00 501.00 C 278.69 498.22 279.55 494.45 279.00 491.00 C 282.55 502.57 274.63 523.50 284.75 532.25 C 294.87 540.99 293.58 552.74 306.00 556.00 C 303.32 570.77 316.60 566.76 324.00 572.00 C 327.43 569.76 335.71 568.46 332.00 574.00 C 335.73 575.40 336.56 573.85 336.00 570.00 C 337.84 572.14 341.60 569.66 343.00 572.00 C 341.09 581.84 358.63 574.03 361.00 582.00 C 363.69 580.84 366.40 582.00 363.00 579.00 C 367.78 576.39 370.94 581.33 366.00 584.00 C 369.73 583.40 378.17 585.63 376.00 590.00 C 379.78 590.99 378.83 585.24 383.00 586.00 C 378.03 591.32 386.95 589.88 391.00 590.00 C 389.36 592.59 384.57 589.34 383.00 592.00 C 386.87 593.96 393.51 591.56 392.00 598.00 C 399.16 592.31 393.14 582.03 398.00 576.00 C 399.96 558.48 402.99 543.29 409.00 527.00 C 407.29 527.62 407.63 530.29 406.00 531.00 C 407.47 527.11 404.62 523.68 406.00 520.00 C 398.86 520.72 394.95 515.14 399.00 509.00 C 395.81 509.94 394.21 507.78 392.00 507.00 C 392.90 508.96 392.12 510.27 394.00 512.00 C 388.45 512.15 392.46 503.90 389.00 501.00 C 386.42 500.89 384.62 503.91 382.00 502.00 C 383.85 500.03 386.75 498.25 389.00 497.00 C 384.15 497.74 378.23 491.39 376.00 496.00 C 374.72 491.43 375.57 490.39 379.00 488.00 C 374.22 489.34 374.70 484.82 376.00 482.00 C 371.38 480.22 370.89 476.53 368.13 473.92 C 365.38 471.31 363.93 468.19 367.00 465.00 C 360.78 465.86 360.64 463.30 366.00 462.00 C 360.32 458.62 348.43 463.93 348.00 457.00 C 343.25 456.10 343.26 462.17 338.00 461.00 C 340.66 457.26 333.54 456.69 337.00 453.00 C 334.58 453.02 332.95 454.82 331.00 456.00 C 329.06 451.85 327.90 454.31 327.00 457.00 C 325.97 451.48 315.02 453.47 310.03 449.02 C 305.04 444.57 296.19 452.51 293.00 446.00 C 292.29 439.67 296.00 434.01 296.00 429.00 C 295.13 430.70 293.75 432.49 293.00 434.00 Z" data-index="22"/>
</g>
<g fill="None" fill-opacity="0.0" stroke="#E3B380" stroke-opacity="1.00" stroke-width="0.3"><path d=" M 638.00 471.00  C 641.20 466.21 643.99 460.14 644.00 454.00 C 642.80 454.19 641.96 453.52 641.00 453.00 C 645.61 456.49 639.62 466.93 638.00 471.00 Z" data-index="23"/>
</g>
<g fill="None" fill-opacity="0.0" stroke="#B32628" stroke-opacity="1.00" stroke-width="0.3"><path d=" M 409.00 527.00  C 402.99 543.29 399.96 558.48 398.00 576.00 C 389.31 653.80 443.59 729.17 511.00 761.00 C 507.22 760.96 503.45 760.72 500.00 762.00 C 505.79 762.70 512.56 764.00 519.00 764.00 C 528.33 764.00 537.67 764.00 547.00 764.00 C 629.89 764.00 702.53 712.42 746.00 644.00 C 742.81 643.75 733.49 651.47 729.00 653.00 C 728.29 653.55 727.78 653.52 727.00 654.00 C 701.28 669.68 672.95 680.82 642.00 682.00 C 621.51 684.93 599.89 680.67 580.78 676.22 C 561.67 671.77 549.56 662.46 533.00 654.00 C 530.60 653.14 528.35 652.17 526.00 651.00 C 523.00 649.50 520.02 647.74 517.00 646.00 C 457.45 617.95 415.33 547.45 436.00 482.00 C 423.96 494.76 415.04 510.65 409.00 527.00 Z" data-index="24"/>
</g>
<g fill="None" fill-opacity="0.0" stroke="#F8E6CC" stroke-opacity="1.00" stroke-width="0.3">
</g>
<g fill="None" fill-opacity="0.0" stroke="#EEBCAC" stroke-opacity="1.00" stroke-width="0.3"><path d=" M 278.00 491.00  C 278.15 489.46 278.76 486.18 279.00 484.00 C 278.60 485.98 278.04 488.36 278.00 491.00 Z" data-index="26" style="visibility: hidden;"/>
</g>
<g fill="None" fill-opacity="0.0" stroke="#E6B982" stroke-opacity="1.00" stroke-width="0.3"><path d=" M 774.00 499.00  C 774.82 496.59 776.17 492.81 778.00 491.00 C 779.59 496.33 777.92 503.19 780.00 508.00 C 779.48 500.55 780.94 490.01 777.00 485.00 C 776.54 489.84 774.99 494.32 774.00 499.00 Z" data-index="27"/>
</g>
<g fill="None" fill-opacity="0.0" stroke="#DA412D" stroke-opacity="1.00" stroke-width="0.3"><path d=" M 278.00 501.00  C 277.90 502.38 277.18 503.19 277.00 504.00 C 276.84 511.77 275.57 523.38 279.25 529.75 C 282.92 536.13 287.39 539.48 291.70 545.30 C 296.00 551.13 299.32 555.63 303.24 561.75 C 307.17 567.87 290.68 566.96 286.00 568.00 C 284.94 568.34 283.40 569.68 282.00 570.00 C 281.95 571.76 283.53 573.07 283.00 575.00 C 294.27 613.54 310.65 647.69 339.25 677.75 C 367.84 707.81 408.78 723.33 449.00 727.00 C 456.60 734.49 456.61 747.39 464.25 754.75 C 471.89 762.11 489.89 760.78 500.00 762.00 C 503.45 760.72 507.22 760.96 511.00 761.00 C 443.59 729.17 389.31 653.80 398.00 576.00 C 393.14 582.03 399.16 592.31 392.00 598.00 C 393.51 591.56 386.87 593.96 383.00 592.00 C 384.57 589.34 389.36 592.59 391.00 590.00 C 386.95 589.88 378.03 591.32 383.00 586.00 C 378.83 585.24 379.78 590.99 376.00 590.00 C 378.17 585.63 369.73 583.40 366.00 584.00 C 370.94 581.33 367.78 576.39 363.00 579.00 C 366.40 582.00 363.69 580.84 361.00 582.00 C 358.63 574.03 341.09 581.84 343.00 572.00 C 341.60 569.66 337.84 572.14 336.00 570.00 C 336.56 573.85 335.73 575.40 332.00 574.00 C 335.71 568.46 327.43 569.76 324.00 572.00 C 316.60 566.76 303.32 570.77 306.00 556.00 C 293.58 552.74 294.87 540.99 284.75 532.25 C 274.63 523.50 282.55 502.57 279.00 491.00 C 279.55 494.45 278.69 498.22 278.00 501.00 Z" data-index="28"/>
</g>
<g fill="None" fill-opacity="0.0" stroke="#ED8F33" stroke-opacity="1.00" stroke-width="0.3"><path d=" M 774.00 499.00  C 773.42 501.76 772.88 504.37 772.00 507.00 C 770.27 512.19 768.47 517.34 766.00 522.00 C 765.70 523.02 765.31 524.01 765.00 525.00 C 763.64 529.28 761.19 532.43 759.00 536.00 C 758.20 537.62 757.72 539.46 757.00 541.00 C 746.05 564.31 726.09 586.83 706.00 604.00 C 699.13 609.87 692.00 615.75 685.00 621.00 C 691.13 617.55 694.66 619.50 699.00 617.00 C 704.04 623.52 712.46 621.99 718.00 617.00 C 715.64 620.72 719.28 621.67 723.00 621.00 C 720.63 622.77 723.69 625.75 727.00 627.00 C 725.86 629.59 722.20 632.94 728.00 633.00 C 727.58 636.54 723.94 644.22 729.00 645.00 C 725.65 648.18 727.98 651.52 727.00 654.00 C 727.78 653.52 728.29 653.55 729.00 653.00 C 731.05 651.43 736.80 649.32 738.70 647.70 C 740.59 646.08 745.77 640.48 747.00 643.00 C 756.81 632.80 759.14 618.04 765.03 605.03 C 770.91 592.02 774.69 576.11 777.00 561.00 C 779.31 545.89 779.96 525.03 780.00 509.00 C 780.00 509.00 780.00 508.50 780.00 508.00 C 777.92 503.19 779.59 496.33 778.00 491.00 C 776.17 492.81 774.82 496.59 774.00 499.00 Z" data-index="29"/>
</g>
<g fill="None" fill-opacity="0.0" stroke="#E6A691" stroke-opacity="1.00" stroke-width="0.3">
</g>
<g fill="None" fill-opacity="0.0" stroke="#203A70" stroke-opacity="1.00" stroke-width="0.3"><path d=" M 282.00 558.00  C 278.61 551.45 272.92 547.02 267.75 541.25 C 262.58 535.48 258.00 532.58 252.75 526.25 C 247.51 519.92 243.23 519.04 237.75 511.25 C 232.27 503.46 226.31 504.57 223.30 513.30 C 220.30 522.04 215.18 524.42 211.92 531.92 C 208.66 539.42 203.71 543.32 200.30 550.31 C 196.90 557.29 192.13 562.76 190.00 570.00 C 199.96 568.78 209.67 566.69 220.00 567.00 C 235.85 681.26 342.96 778.84 459.00 781.00 C 453.78 767.25 446.45 754.33 440.00 741.00 C 349.64 731.31 269.77 652.26 256.00 563.00 C 264.30 559.95 273.66 560.87 282.00 558.00 Z" data-index="31"/>
</g>
<g fill="None" fill-opacity="0.0" stroke="#F8DEC9" stroke-opacity="1.00" stroke-width="0.3"><path d=" M 494.00 531.00  C 492.36 534.04 490.38 536.80 489.00 540.00 C 488.22 541.81 486.60 544.39 486.00 546.00 C 485.42 548.25 485.68 550.82 485.00 553.00 C 489.33 546.96 490.54 537.03 496.25 531.25 C 501.96 525.47 507.87 520.89 513.75 515.75 C 519.63 510.61 529.46 507.39 534.00 505.00 C 518.33 509.37 504.39 517.70 494.00 531.00 Z" data-index="32"/>
</g>
<g fill="None" fill-opacity="0.0" stroke="#ECC086" stroke-opacity="1.00" stroke-width="0.3"><path d=" M 766.00 522.00  C 768.47 517.34 770.27 512.19 772.00 507.00 C 769.72 511.76 767.59 516.56 766.00 522.00 Z" data-index="33"/>
</g>
<g fill="None" fill-opacity="0.0" stroke="#E8B87D" stroke-opacity="1.00" stroke-width="0.3"><path d=" M 759.00 536.00  C 761.19 532.43 763.64 529.28 765.00 525.00 C 763.35 528.48 760.82 532.28 759.00 536.00 Z" data-index="34"/>
</g>
<g fill="None" fill-opacity="0.0" stroke="#E2A483" stroke-opacity="1.00" stroke-width="0.3"><path d=" M 486.00 546.00  C 486.60 544.39 488.22 541.81 489.00 540.00 C 487.86 541.96 486.63 543.58 486.00 546.00 Z" data-index="35"/>
</g>
<g fill="None" fill-opacity="0.0" stroke="#ECBB8A" stroke-opacity="1.00" stroke-width="0.3">
</g>
<g fill="None" fill-opacity="0.0" stroke="#F8DFC9" stroke-opacity="1.00" stroke-width="0.3"><path d=" M 641.00 644.00  C 642.33 643.82 643.69 643.40 645.00 643.00 C 658.76 638.76 673.47 629.66 685.00 621.00 C 692.00 615.75 699.13 609.87 706.00 604.00 C 714.18 595.82 723.40 586.30 730.25 577.25 C 737.10 568.19 748.43 559.14 751.00 548.00 C 744.36 553.08 739.29 565.33 732.97 571.97 C 726.65 578.61 721.07 587.45 713.25 594.25 C 705.43 601.05 699.50 607.15 691.75 613.75 C 683.99 620.34 674.38 623.68 667.75 629.75 C 661.12 635.83 647.30 637.83 641.00 644.00 Z" data-index="37" style="visibility: hidden;"/>
</g>
<g fill="None" fill-opacity="0.0" stroke="#F5D2BE" stroke-opacity="1.00" stroke-width="0.3">
</g>
<g fill="None" fill-opacity="0.0" stroke="#FADDD7" stroke-opacity="1.00" stroke-width="0.3"><path d=" M 283.00 575.00  C 283.53 573.07 281.95 571.76 282.00 570.00 C 283.40 569.68 284.94 568.34 286.00 568.00 C 280.18 569.29 281.40 570.95 283.00 575.00 Z" data-index="39" style="visibility: hidden;"/>
</g>
<g fill="None" fill-opacity="0.0" stroke="#E49D7E" stroke-opacity="1.00" stroke-width="0.3"><path d=" M 485.00 596.00  C 484.83 595.08 485.00 593.93 485.00 593.00 C 485.00 593.00 485.00 592.50 485.00 592.00 C 484.56 591.22 483.26 589.83 483.00 589.00 C 483.37 591.62 484.18 593.85 485.00 596.00 Z" data-index="40"/>
</g>
<g fill="None" fill-opacity="0.0" stroke="#F7DBCD" stroke-opacity="1.00" stroke-width="0.3">
</g>
<g fill="None" fill-opacity="0.0" stroke="#E7732E" stroke-opacity="1.00" stroke-width="0.3"><path d=" M 685.00 621.00  C 673.47 629.66 658.76 638.76 645.00 643.00 C 639.91 645.33 633.41 647.84 630.00 653.00 C 627.76 652.44 625.52 651.62 623.00 652.00 C 619.81 652.04 617.29 653.22 614.00 653.00 C 614.00 653.00 613.50 652.98 613.00 653.00 C 612.44 653.31 610.54 654.89 610.00 655.00 C 611.93 653.06 610.87 658.75 608.00 657.00 C 612.38 661.26 608.14 665.14 611.00 670.00 C 604.97 671.74 608.77 676.60 609.00 681.00 C 619.72 682.38 630.93 681.99 642.00 682.00 C 672.95 680.82 701.28 669.68 727.00 654.00 C 727.98 651.52 725.65 648.18 729.00 645.00 C 723.94 644.22 727.58 636.54 728.00 633.00 C 722.20 632.94 725.86 629.59 727.00 627.00 C 723.69 625.75 720.63 622.77 723.00 621.00 C 719.28 621.67 715.64 620.72 718.00 617.00 C 712.46 621.99 704.04 623.52 699.00 617.00 C 694.66 619.50 691.13 617.55 685.00 621.00 Z" data-index="42"/>
</g>
<g fill="None" fill-opacity="0.0" stroke="#DE9A82" stroke-opacity="1.00" stroke-width="0.3"><path d=" M 517.00 646.00  C 520.02 647.74 523.00 649.50 526.00 651.00 C 517.91 645.56 508.73 637.72 502.00 630.00 C 505.98 635.35 511.94 641.59 517.00 646.00 Z" data-index="43"/>
</g>
<g fill="None" fill-opacity="0.0" stroke="#C85F32" stroke-opacity="1.00" stroke-width="0.3"><path d=" M 729.00 653.00  C 733.49 651.47 742.81 643.75 746.00 644.00 C 746.17 643.73 746.75 643.26 747.00 643.00 C 745.77 640.48 740.59 646.08 738.70 647.70 C 736.80 649.32 731.05 651.43 729.00 653.00 Z" data-index="44"/>
</g>
<g fill="None" fill-opacity="0.0" stroke="#E3996B" stroke-opacity="1.00" stroke-width="0.3"><path d=" M 641.00 644.00  C 641.00 644.00 640.49 643.92 640.00 644.00 C 635.74 647.42 627.99 650.55 623.00 652.00 C 625.52 651.62 627.76 652.44 630.00 653.00 C 633.41 647.84 639.91 645.33 645.00 643.00 C 643.69 643.40 642.33 643.82 641.00 644.00 Z" data-index="45"/>
</g>
<g fill="None" fill-opacity="0.0" stroke="#F4D4BA" stroke-opacity="1.00" stroke-width="0.3">
</g>
<g fill="None" fill-opacity="0.0" stroke="#F0C1AC" stroke-opacity="1.00" stroke-width="0.3"><path d=" M 607.00 655.00  C 607.91 655.02 609.12 655.18 610.00 655.00 C 610.54 654.89 612.44 653.31 613.00 653.00 C 610.52 653.09 608.90 654.56 607.00 655.00 Z" data-index="47"/>
</g>
<g fill="None" fill-opacity="0.0" stroke="#DE5631" stroke-opacity="1.00" stroke-width="0.3"><path d=" M 642.00 682.00  C 630.93 681.99 619.72 682.38 609.00 681.00 C 608.77 676.60 604.97 671.74 611.00 670.00 C 608.14 665.14 612.38 661.26 608.00 657.00 C 610.87 658.75 611.93 653.06 610.00 655.00 C 609.12 655.18 607.91 655.02 607.00 655.00 C 597.22 654.74 587.79 658.47 578.00 659.00 C 571.59 660.04 563.35 660.58 557.00 659.00 C 555.66 658.89 554.78 658.16 554.00 658.00 C 552.36 658.00 550.63 658.15 549.00 658.00 C 543.81 657.51 537.85 655.74 533.00 654.00 C 549.56 662.46 561.67 671.77 580.78 676.22 C 599.89 680.67 621.51 684.93 642.00 682.00 Z" data-index="48"/>
</g>
<g fill="None" fill-opacity="0.0" stroke="#F6BCAC" stroke-opacity="1.00" stroke-width="0.3">
</g>
<g fill="None" fill-opacity="0.0" stroke="#C97A63" stroke-opacity="1.00" stroke-width="0.3"><path d=" M 578.00 659.00  C 572.70 659.29 567.31 659.00 562.00 659.00 C 560.35 659.00 558.64 659.13 557.00 659.00 C 563.35 660.58 571.59 660.04 578.00 659.00 Z" data-index="50"/>
</g>
<g fill="None" fill-opacity="0.0" stroke="#CF9392" stroke-opacity="1.00" stroke-width="0.3"><path d=" M 547.00 764.00  C 537.67 764.00 528.33 764.00 519.00 764.00 C 527.74 764.85 538.19 764.85 547.00 764.00 Z" data-index="51"/>
</g>
<g fill="#F3F3F3" fill-opacity="1.00" stroke="None">

</g>
<g fill="#F6DDBB" fill-opacity="1.00" stroke="None">
<path d=" M 483.00 208.00  C 490.40 203.51 497.94 199.01 506.00 196.00 C 494.22 221.55 481.25 247.16 483.00 277.00 C 489.96 275.89 494.68 268.49 502.00 268.00 C 499.23 277.55 495.49 287.49 493.00 297.00 C 491.98 306.14 489.41 317.82 499.07 320.93 C 508.73 324.04 513.39 325.58 522.00 330.00 C 523.35 330.69 524.70 331.25 526.00 332.00 C 517.93 322.03 504.26 322.42 494.00 316.00 C 492.16 297.87 500.40 282.50 504.00 266.00 C 496.37 265.24 491.63 272.16 485.00 274.00 C 484.99 266.70 484.60 256.51 487.07 250.07 C 489.54 243.64 490.12 239.14 492.07 232.07 C 494.03 225.01 497.63 221.81 500.01 215.01 C 502.38 208.21 505.27 205.02 508.75 197.75 C 512.23 190.48 503.28 195.19 498.08 198.08 C 492.87 200.96 487.68 204.41 483.00 208.00 Z" data-index="53" style="visibility: hidden;"/>
</g>
<g fill="#ED9533" fill-opacity="1.00" stroke="None">
<path d=" M 483.00 208.00  C 455.26 224.82 428.40 248.89 411.00 277.00 C 403.85 288.55 398.01 301.20 392.00 313.00 C 391.94 313.49 392.11 314.52 392.00 315.00 C 399.90 298.30 408.11 282.56 420.00 268.00 C 422.57 270.61 426.80 269.03 430.00 268.00 C 419.33 261.41 440.13 265.42 433.00 260.00 C 437.38 262.78 441.45 261.29 446.00 260.00 C 445.81 263.48 441.09 262.83 441.00 266.00 C 444.91 266.64 448.01 269.12 451.00 265.00 C 453.32 273.22 461.90 264.63 464.00 263.00 C 466.90 267.06 461.46 266.82 461.00 270.00 C 464.39 270.28 468.39 271.19 472.00 268.00 C 473.12 271.39 475.28 272.26 474.00 276.00 C 475.72 274.30 479.29 275.97 480.00 273.00 C 473.72 274.79 478.57 271.98 481.00 270.00 C 480.54 276.16 491.17 289.22 494.00 283.00 C 496.44 287.67 491.77 291.88 493.00 297.00 C 495.49 287.49 499.23 277.55 502.00 268.00 C 494.68 268.49 489.96 275.89 483.00 277.00 C 481.25 247.16 494.22 221.55 506.00 196.00 C 497.94 199.01 490.40 203.51 483.00 208.00 Z" data-index="54"/>
</g>
<g fill="#F4DA9B" fill-opacity="1.00" stroke="None">
<path d=" M 536.00 267.00  C 542.19 269.83 551.70 270.51 558.00 272.00 C 569.57 273.51 580.24 278.32 591.00 282.00 C 598.44 284.55 605.68 287.91 613.00 291.00 C 604.40 286.10 596.15 281.13 586.31 278.69 C 576.46 276.26 566.21 271.10 556.00 270.00 C 545.79 268.91 533.73 267.05 530.70 256.31 C 527.66 245.56 519.83 240.57 518.00 230.00 C 528.21 229.83 537.85 231.89 548.00 232.00 C 538.53 229.44 527.42 229.30 517.00 229.00 C 517.18 236.22 522.45 243.03 526.08 248.92 C 529.71 254.81 530.75 263.58 536.00 267.00 Z" data-index="55"/>
</g>
<g fill="#F6B326" fill-opacity="1.00" stroke="None">
<path d=" M 613.00 291.00  C 616.76 292.59 620.44 295.08 624.00 297.00 C 643.00 307.25 659.78 323.39 673.25 340.75 C 686.73 358.10 701.83 379.46 707.00 401.00 C 707.57 403.39 708.04 405.71 709.00 408.00 C 709.84 410.02 712.18 412.07 711.00 415.00 C 703.37 415.74 699.97 418.01 691.99 418.99 C 684.02 419.97 690.31 424.96 695.23 428.77 C 700.15 432.58 702.24 434.87 708.23 438.77 C 714.21 442.67 713.22 444.07 721.08 448.92 C 728.94 453.77 738.64 467.92 748.00 464.00 C 756.69 442.91 769.10 422.72 776.00 401.00 C 765.00 402.85 746.57 410.46 744.33 396.67 C 742.08 382.88 735.93 376.24 730.92 365.08 C 725.91 353.92 720.38 346.11 714.75 336.25 C 709.13 326.38 702.34 319.21 695.25 310.75 C 688.16 302.29 680.91 294.83 672.75 287.25 C 664.59 279.67 655.57 274.65 646.25 268.75 C 636.92 262.86 628.07 256.91 617.69 252.31 C 607.32 247.70 596.51 242.76 585.22 239.78 C 573.93 236.80 559.97 232.81 548.00 232.00 C 537.85 231.89 528.21 229.83 518.00 230.00 C 519.83 240.57 527.66 245.56 530.70 256.31 C 533.73 267.05 545.79 268.91 556.00 270.00 C 566.21 271.10 576.46 276.26 586.31 278.69 C 596.15 281.13 604.40 286.10 613.00 291.00 Z" data-index="56"/>
</g>
<g fill="#EB8326" fill-opacity="1.00" stroke="None">
<path d=" M 392.00 315.00  C 391.33 318.04 390.12 321.07 389.00 324.00 C 387.95 328.17 386.13 332.28 385.00 336.00 C 383.98 341.03 384.33 346.32 382.00 351.00 C 378.01 337.94 376.15 323.35 369.00 311.00 C 367.14 307.81 364.70 304.49 363.00 301.00 C 357.61 317.96 356.25 339.39 344.00 354.00 C 339.26 364.99 330.62 373.95 324.00 384.00 C 322.18 386.77 320.11 388.58 318.00 391.00 C 316.80 392.62 316.13 394.42 315.00 396.00 C 318.18 392.82 322.20 390.23 324.00 386.00 C 326.48 389.65 326.86 391.72 329.77 387.76 C 332.68 383.81 335.44 381.96 337.00 387.00 C 335.97 383.89 338.69 382.23 340.00 380.00 C 342.20 383.27 351.28 384.55 351.00 379.00 C 355.25 379.64 352.33 382.53 354.00 385.00 C 356.36 382.89 359.20 382.18 362.00 381.00 C 358.48 385.44 362.32 385.07 366.00 383.00 C 370.94 388.73 383.17 385.86 390.00 387.00 C 388.81 391.85 396.69 392.44 400.00 394.00 C 398.59 401.06 407.25 406.36 414.00 407.00 C 409.54 409.66 415.16 410.58 418.00 410.00 C 414.34 412.86 418.27 415.72 419.00 419.00 C 422.37 418.11 427.00 419.58 431.00 419.00 C 427.66 423.76 431.07 425.82 426.00 429.00 C 430.28 430.17 436.15 432.04 436.00 437.00 C 442.02 436.21 447.51 441.23 450.00 445.00 C 455.52 443.12 456.69 449.50 461.00 446.00 C 460.27 449.58 461.47 451.90 465.00 450.00 C 464.56 453.42 470.86 454.94 467.00 457.00 C 471.86 456.96 480.83 456.69 472.00 459.00 C 474.45 458.91 477.61 458.77 479.00 461.00 C 475.24 460.84 479.11 464.89 478.00 467.00 C 480.94 466.33 483.18 468.09 486.00 468.00 C 485.40 471.06 489.28 473.14 492.00 473.00 C 491.36 478.39 493.82 475.86 495.00 473.00 C 496.57 477.21 492.80 477.28 492.00 480.00 C 495.44 481.20 496.40 482.89 500.00 483.00 C 495.94 489.63 503.71 494.92 498.00 502.00 C 501.45 500.67 501.79 504.69 505.00 504.00 C 501.29 506.38 510.53 515.45 503.75 518.75 C 496.97 522.06 495.79 525.21 494.00 531.00 C 504.39 517.70 518.33 509.37 534.00 505.00 C 569.37 495.13 621.00 513.78 638.00 471.00 C 639.62 466.93 645.61 456.49 641.00 453.00 C 632.95 448.65 621.11 449.06 613.23 443.77 C 605.35 438.49 596.27 436.61 588.75 431.25 C 581.23 425.88 577.07 417.00 574.00 409.00 C 571.91 403.53 570.00 397.11 569.00 391.00 C 569.00 391.00 569.02 390.50 569.00 390.00 C 565.00 385.07 562.26 374.28 560.00 368.00 C 555.30 354.93 544.65 344.99 533.00 338.00 C 529.06 335.64 525.56 332.47 522.00 330.00 C 513.39 325.58 508.73 324.04 499.07 320.93 C 489.41 317.82 491.98 306.14 493.00 297.00 C 491.77 291.88 496.44 287.67 494.00 283.00 C 491.17 289.22 480.54 276.16 481.00 270.00 C 478.57 271.98 473.72 274.79 480.00 273.00 C 479.29 275.97 475.72 274.30 474.00 276.00 C 475.28 272.26 473.12 271.39 472.00 268.00 C 468.39 271.19 464.39 270.28 461.00 270.00 C 461.46 266.82 466.90 267.06 464.00 263.00 C 461.90 264.63 453.32 273.22 451.00 265.00 C 448.01 269.12 444.91 266.64 441.00 266.00 C 441.09 262.83 445.81 263.48 446.00 260.00 C 441.45 261.29 437.38 262.78 433.00 260.00 C 440.13 265.42 419.33 261.41 430.00 268.00 C 426.80 269.03 422.57 270.61 420.00 268.00 C 408.11 282.56 399.90 298.30 392.00 315.00 M 535.00 421.00  C 512.79 426.30 492.80 413.60 489.00 392.00 C 508.52 392.22 534.29 396.93 535.00 421.00 Z" data-index="57"/>
</g>
<g fill="#F7ECD3" fill-opacity="1.00" stroke="None">

</g>
<g fill="#EABB87" fill-opacity="1.00" stroke="None">
<path d=" M 405.00 285.00  C 400.65 293.06 393.15 303.91 392.00 313.00 C 398.01 301.20 403.85 288.55 411.00 277.00 C 408.97 279.62 406.60 282.03 405.00 285.00 Z" data-index="59" style="visibility: hidden;"/>
</g>
<g fill="#FAF1D3" fill-opacity="1.00" stroke="None">

</g>
<g fill="#F9E0C7" fill-opacity="1.00" stroke="None">
<path d=" M 297.00 426.00  C 300.81 416.26 307.50 403.50 315.00 396.00 C 316.13 394.42 316.80 392.62 318.00 391.00 C 319.87 388.48 322.16 386.23 324.00 384.00 C 330.62 373.95 339.26 364.99 344.00 354.00 C 351.85 335.80 359.61 317.49 362.00 298.00 C 365.17 301.88 367.64 306.26 369.00 311.00 C 376.15 323.35 378.01 337.94 382.00 351.00 C 384.33 346.32 383.98 341.03 385.00 336.00 C 385.82 331.96 387.64 327.55 389.00 324.00 C 390.12 321.07 391.33 318.04 392.00 315.00 C 392.11 314.52 391.94 313.49 392.00 313.00 C 393.15 303.91 400.65 293.06 405.00 285.00 C 392.15 301.67 387.50 322.96 382.00 343.00 C 376.80 327.90 374.13 306.25 360.00 297.00 C 360.04 304.90 356.48 312.63 354.99 319.99 C 353.51 327.36 351.27 335.11 348.92 341.92 C 346.57 348.74 341.75 353.78 338.92 359.92 C 336.09 366.07 329.77 370.38 327.32 376.32 C 324.88 382.26 318.22 387.50 314.92 391.92 C 311.63 396.35 305.35 404.60 303.80 408.75 C 302.25 412.91 294.84 423.04 297.00 426.00 Z" data-index="61" style="visibility: hidden;"/>
</g>
<g fill="#F1D185" fill-opacity="1.00" stroke="None">
<path d=" M 707.00 401.00  C 701.83 379.46 686.73 358.10 673.25 340.75 C 659.78 323.39 643.00 307.25 624.00 297.00 C 641.97 310.10 658.19 324.52 672.75 342.25 C 687.32 359.98 697.42 380.97 707.00 401.00 Z" data-index="62"/>
</g>
<g fill="#E4AD7D" fill-opacity="1.00" stroke="None">
<path d=" M 344.00 354.00  C 356.25 339.39 357.61 317.96 363.00 301.00 C 364.70 304.49 367.14 307.81 369.00 311.00 C 367.64 306.26 365.17 301.88 362.00 298.00 C 359.61 317.49 351.85 335.80 344.00 354.00 Z" data-index="63"/>
</g>
<g fill="#E6B07A" fill-opacity="1.00" stroke="None">
<path d=" M 385.00 336.00  C 386.13 332.28 387.95 328.17 389.00 324.00 C 387.64 327.55 385.82 331.96 385.00 336.00 Z" data-index="64"/>
</g>
<g fill="#E5B076" fill-opacity="1.00" stroke="None">
<path d=" M 533.00 338.00  C 530.58 336.15 528.85 333.64 526.00 332.00 C 524.70 331.25 523.35 330.69 522.00 330.00 C 525.56 332.47 529.06 335.64 533.00 338.00 Z" data-index="65"/>
</g>
<g fill="#E6B277" fill-opacity="1.00" stroke="None">
<path d=" M 569.00 390.00  C 568.71 382.15 563.40 374.44 560.00 368.00 C 562.26 374.28 565.00 385.07 569.00 390.00 Z" data-index="66"/>
</g>
<g fill="#E66726" fill-opacity="1.00" stroke="None">
<path d=" M 315.00 396.00  C 307.50 403.50 300.81 416.26 297.00 426.00 C 297.00 426.00 297.09 426.52 297.00 427.00 C 296.91 427.52 296.24 428.53 296.00 429.00 C 296.00 434.01 292.29 439.67 293.00 446.00 C 296.19 452.51 305.04 444.57 310.03 449.02 C 315.02 453.47 325.97 451.48 327.00 457.00 C 327.90 454.31 329.06 451.85 331.00 456.00 C 332.95 454.82 334.58 453.02 337.00 453.00 C 333.54 456.69 340.66 457.26 338.00 461.00 C 343.26 462.17 343.25 456.10 348.00 457.00 C 348.43 463.93 360.32 458.62 366.00 462.00 C 360.64 463.30 360.78 465.86 367.00 465.00 C 363.93 468.19 365.38 471.31 368.13 473.92 C 370.89 476.53 371.38 480.22 376.00 482.00 C 374.70 484.82 374.22 489.34 379.00 488.00 C 375.57 490.39 374.72 491.43 376.00 496.00 C 378.23 491.39 384.15 497.74 389.00 497.00 C 386.75 498.25 383.85 500.03 382.00 502.00 C 384.62 503.91 386.42 500.89 389.00 501.00 C 392.46 503.90 388.45 512.15 394.00 512.00 C 392.12 510.27 392.90 508.96 392.00 507.00 C 394.21 507.78 395.81 509.94 399.00 509.00 C 394.95 515.14 398.86 520.72 406.00 520.00 C 404.62 523.68 407.47 527.11 406.00 531.00 C 407.63 530.29 407.29 527.62 409.00 527.00 C 415.04 510.65 423.96 494.76 436.00 482.00 C 415.33 547.45 457.45 617.95 517.00 646.00 C 511.94 641.59 505.98 635.35 502.00 630.00 C 494.62 620.07 487.22 608.22 485.00 596.00 C 484.18 593.85 483.37 591.62 483.00 589.00 C 481.57 578.99 480.27 564.15 484.00 555.00 C 484.44 553.92 484.40 553.84 485.00 553.00 C 485.68 550.82 485.42 548.25 486.00 546.00 C 486.63 543.58 487.86 541.96 489.00 540.00 C 490.38 536.80 492.36 534.04 494.00 531.00 C 495.79 525.21 496.97 522.06 503.75 518.75 C 510.53 515.45 501.29 506.38 505.00 504.00 C 501.79 504.69 501.45 500.67 498.00 502.00 C 503.71 494.92 495.94 489.63 500.00 483.00 C 496.40 482.89 495.44 481.20 492.00 480.00 C 492.80 477.28 496.57 477.21 495.00 473.00 C 493.82 475.86 491.36 478.39 492.00 473.00 C 489.28 473.14 485.40 471.06 486.00 468.00 C 483.18 468.09 480.94 466.33 478.00 467.00 C 479.11 464.89 475.24 460.84 479.00 461.00 C 477.61 458.77 474.45 458.91 472.00 459.00 C 480.83 456.69 471.86 456.96 467.00 457.00 C 470.86 454.94 464.56 453.42 465.00 450.00 C 461.47 451.90 460.27 449.58 461.00 446.00 C 456.69 449.50 455.52 443.12 450.00 445.00 C 447.51 441.23 442.02 436.21 436.00 437.00 C 436.15 432.04 430.28 430.17 426.00 429.00 C 431.07 425.82 427.66 423.76 431.00 419.00 C 427.00 419.58 422.37 418.11 419.00 419.00 C 418.27 415.72 414.34 412.86 418.00 410.00 C 415.16 410.58 409.54 409.66 414.00 407.00 C 407.25 406.36 398.59 401.06 400.00 394.00 C 396.69 392.44 388.81 391.85 390.00 387.00 C 383.17 385.86 370.94 388.73 366.00 383.00 C 362.32 385.07 358.48 385.44 362.00 381.00 C 359.20 382.18 356.36 382.89 354.00 385.00 C 352.33 382.53 355.25 379.64 351.00 379.00 C 351.28 384.55 342.20 383.27 340.00 380.00 C 338.69 382.23 335.97 383.89 337.00 387.00 C 335.44 381.96 332.68 383.81 329.77 387.76 C 326.86 391.72 326.48 389.65 324.00 386.00 C 322.20 390.23 318.18 392.82 315.00 396.00 Z" data-index="67"/>
</g>
<g fill="#E7AD85" fill-opacity="1.00" stroke="None">
<path d=" M 318.00 391.00  C 320.11 388.58 322.18 386.77 324.00 384.00 C 322.16 386.23 319.87 388.48 318.00 391.00 Z" data-index="68"/>
</g>
<g fill="#EFBE8E" fill-opacity="1.00" stroke="None">
<path d=" M 574.00 409.00  C 572.36 402.49 572.06 396.85 569.00 391.00 C 570.00 397.11 571.91 403.53 574.00 409.00 Z" data-index="69"/>
</g>
<g fill="#F7DBBA" fill-opacity="1.00" stroke="None">
<path d=" M 535.00 421.00  C 534.29 396.93 508.52 392.22 489.00 392.00 C 492.80 413.60 512.79 426.30 535.00 421.00 M 492.00 394.00  C 504.72 396.41 522.15 395.98 529.75 408.25 C 537.35 420.51 526.12 420.03 519.00 420.00 C 511.88 419.97 505.17 417.16 501.08 411.92 C 496.99 406.67 493.24 401.03 492.00 394.00 Z" data-index="70"/>
</g>
<g fill="#F4F2F1" fill-opacity="1.00" stroke="None">

</g>
<g fill="#F1D089" fill-opacity="1.00" stroke="None">
<path d=" M 711.00 444.00  C 723.70 450.30 733.38 463.98 747.00 468.00 C 747.33 466.84 747.42 464.99 748.00 464.00 C 738.64 467.92 728.94 453.77 721.08 448.92 C 713.22 444.07 714.21 442.67 708.23 438.77 C 702.24 434.87 700.15 432.58 695.23 428.77 C 690.31 424.96 684.02 419.97 691.99 418.99 C 699.97 418.01 703.37 415.74 711.00 415.00 C 712.18 412.07 709.84 410.02 709.00 408.00 C 711.95 420.35 691.27 414.03 684.00 419.00 C 690.93 428.68 701.80 436.44 711.00 444.00 Z" data-index="72"/>
</g>
<g fill="#EFBA9D" fill-opacity="1.00" stroke="None">
<path d=" M 293.00 434.00  C 293.75 432.49 295.13 430.70 296.00 429.00 C 296.24 428.53 296.91 427.52 297.00 427.00 C 294.46 428.59 293.94 431.39 293.00 434.00 Z" data-index="73"/>
</g>
<g fill="#E35627" fill-opacity="1.00" stroke="None">
<path d=" M 293.00 434.00  C 287.21 450.07 280.92 466.82 279.00 484.00 C 278.76 486.18 278.15 489.46 278.00 491.00 C 277.97 493.00 277.99 495.00 278.00 497.00 C 278.00 498.32 278.09 499.68 278.00 501.00 C 278.69 498.22 279.55 494.45 279.00 491.00 C 282.55 502.57 274.63 523.50 284.75 532.25 C 294.87 540.99 293.58 552.74 306.00 556.00 C 303.32 570.77 316.60 566.76 324.00 572.00 C 327.43 569.76 335.71 568.46 332.00 574.00 C 335.73 575.40 336.56 573.85 336.00 570.00 C 337.84 572.14 341.60 569.66 343.00 572.00 C 341.09 581.84 358.63 574.03 361.00 582.00 C 363.69 580.84 366.40 582.00 363.00 579.00 C 367.78 576.39 370.94 581.33 366.00 584.00 C 369.73 583.40 378.17 585.63 376.00 590.00 C 379.78 590.99 378.83 585.24 383.00 586.00 C 378.03 591.32 386.95 589.88 391.00 590.00 C 389.36 592.59 384.57 589.34 383.00 592.00 C 386.87 593.96 393.51 591.56 392.00 598.00 C 399.16 592.31 393.14 582.03 398.00 576.00 C 399.96 558.48 402.99 543.29 409.00 527.00 C 407.29 527.62 407.63 530.29 406.00 531.00 C 407.47 527.11 404.62 523.68 406.00 520.00 C 398.86 520.72 394.95 515.14 399.00 509.00 C 395.81 509.94 394.21 507.78 392.00 507.00 C 392.90 508.96 392.12 510.27 394.00 512.00 C 388.45 512.15 392.46 503.90 389.00 501.00 C 386.42 500.89 384.62 503.91 382.00 502.00 C 383.85 500.03 386.75 498.25 389.00 497.00 C 384.15 497.74 378.23 491.39 376.00 496.00 C 374.72 491.43 375.57 490.39 379.00 488.00 C 374.22 489.34 374.70 484.82 376.00 482.00 C 371.38 480.22 370.89 476.53 368.13 473.92 C 365.38 471.31 363.93 468.19 367.00 465.00 C 360.78 465.86 360.64 463.30 366.00 462.00 C 360.32 458.62 348.43 463.93 348.00 457.00 C 343.25 456.10 343.26 462.17 338.00 461.00 C 340.66 457.26 333.54 456.69 337.00 453.00 C 334.58 453.02 332.95 454.82 331.00 456.00 C 329.06 451.85 327.90 454.31 327.00 457.00 C 325.97 451.48 315.02 453.47 310.03 449.02 C 305.04 444.57 296.19 452.51 293.00 446.00 C 292.29 439.67 296.00 434.01 296.00 429.00 C 295.13 430.70 293.75 432.49 293.00 434.00 Z" data-index="74"/>
</g>
<g fill="#E3B380" fill-opacity="1.00" stroke="None">
<path d=" M 638.00 471.00  C 641.20 466.21 643.99 460.14 644.00 454.00 C 642.80 454.19 641.96 453.52 641.00 453.00 C 645.61 456.49 639.62 466.93 638.00 471.00 Z" data-index="75"/>
</g>
<g fill="#B32628" fill-opacity="1.00" stroke="None">
<path d=" M 409.00 527.00  C 402.99 543.29 399.96 558.48 398.00 576.00 C 389.31 653.80 443.59 729.17 511.00 761.00 C 507.22 760.96 503.45 760.72 500.00 762.00 C 505.79 762.70 512.56 764.00 519.00 764.00 C 528.33 764.00 537.67 764.00 547.00 764.00 C 629.89 764.00 702.53 712.42 746.00 644.00 C 742.81 643.75 733.49 651.47 729.00 653.00 C 728.29 653.55 727.78 653.52 727.00 654.00 C 701.28 669.68 672.95 680.82 642.00 682.00 C 621.51 684.93 599.89 680.67 580.78 676.22 C 561.67 671.77 549.56 662.46 533.00 654.00 C 530.60 653.14 528.35 652.17 526.00 651.00 C 523.00 649.50 520.02 647.74 517.00 646.00 C 457.45 617.95 415.33 547.45 436.00 482.00 C 423.96 494.76 415.04 510.65 409.00 527.00 Z" data-index="76"/>
</g>
<g fill="#F8E6CC" fill-opacity="1.00" stroke="None">

</g>
<g fill="#EEBCAC" fill-opacity="1.00" stroke="None">
<path d=" M 278.00 491.00  C 278.15 489.46 278.76 486.18 279.00 484.00 C 278.60 485.98 278.04 488.36 278.00 491.00 Z" data-index="78" style="visibility: hidden;"/>
</g>
<g fill="#E6B982" fill-opacity="1.00" stroke="None">
<path d=" M 774.00 499.00  C 774.82 496.59 776.17 492.81 778.00 491.00 C 779.59 496.33 777.92 503.19 780.00 508.00 C 779.48 500.55 780.94 490.01 777.00 485.00 C 776.54 489.84 774.99 494.32 774.00 499.00 Z" data-index="79"/>
</g>
<g fill="#DA412D" fill-opacity="1.00" stroke="None">
<path d=" M 278.00 501.00  C 277.90 502.38 277.18 503.19 277.00 504.00 C 276.84 511.77 275.57 523.38 279.25 529.75 C 282.92 536.13 287.39 539.48 291.70 545.30 C 296.00 551.13 299.32 555.63 303.24 561.75 C 307.17 567.87 290.68 566.96 286.00 568.00 C 284.94 568.34 283.40 569.68 282.00 570.00 C 281.95 571.76 283.53 573.07 283.00 575.00 C 294.27 613.54 310.65 647.69 339.25 677.75 C 367.84 707.81 408.78 723.33 449.00 727.00 C 456.60 734.49 456.61 747.39 464.25 754.75 C 471.89 762.11 489.89 760.78 500.00 762.00 C 503.45 760.72 507.22 760.96 511.00 761.00 C 443.59 729.17 389.31 653.80 398.00 576.00 C 393.14 582.03 399.16 592.31 392.00 598.00 C 393.51 591.56 386.87 593.96 383.00 592.00 C 384.57 589.34 389.36 592.59 391.00 590.00 C 386.95 589.88 378.03 591.32 383.00 586.00 C 378.83 585.24 379.78 590.99 376.00 590.00 C 378.17 585.63 369.73 583.40 366.00 584.00 C 370.94 581.33 367.78 576.39 363.00 579.00 C 366.40 582.00 363.69 580.84 361.00 582.00 C 358.63 574.03 341.09 581.84 343.00 572.00 C 341.60 569.66 337.84 572.14 336.00 570.00 C 336.56 573.85 335.73 575.40 332.00 574.00 C 335.71 568.46 327.43 569.76 324.00 572.00 C 316.60 566.76 303.32 570.77 306.00 556.00 C 293.58 552.74 294.87 540.99 284.75 532.25 C 274.63 523.50 282.55 502.57 279.00 491.00 C 279.55 494.45 278.69 498.22 278.00 501.00 Z" data-index="80"/>
</g>
<g fill="#ED8F33" fill-opacity="1.00" stroke="None">
<path d=" M 774.00 499.00  C 773.42 501.76 772.88 504.37 772.00 507.00 C 770.27 512.19 768.47 517.34 766.00 522.00 C 765.70 523.02 765.31 524.01 765.00 525.00 C 763.64 529.28 761.19 532.43 759.00 536.00 C 758.20 537.62 757.72 539.46 757.00 541.00 C 746.05 564.31 726.09 586.83 706.00 604.00 C 699.13 609.87 692.00 615.75 685.00 621.00 C 691.13 617.55 694.66 619.50 699.00 617.00 C 704.04 623.52 712.46 621.99 718.00 617.00 C 715.64 620.72 719.28 621.67 723.00 621.00 C 720.63 622.77 723.69 625.75 727.00 627.00 C 725.86 629.59 722.20 632.94 728.00 633.00 C 727.58 636.54 723.94 644.22 729.00 645.00 C 725.65 648.18 727.98 651.52 727.00 654.00 C 727.78 653.52 728.29 653.55 729.00 653.00 C 731.05 651.43 736.80 649.32 738.70 647.70 C 740.59 646.08 745.77 640.48 747.00 643.00 C 756.81 632.80 759.14 618.04 765.03 605.03 C 770.91 592.02 774.69 576.11 777.00 561.00 C 779.31 545.89 779.96 525.03 780.00 509.00 C 780.00 509.00 780.00 508.50 780.00 508.00 C 777.92 503.19 779.59 496.33 778.00 491.00 C 776.17 492.81 774.82 496.59 774.00 499.00 Z" data-index="81"/>
</g>
<g fill="#E6A691" fill-opacity="1.00" stroke="None">

</g>
<g fill="#203A70" fill-opacity="1.00" stroke="None">
<path d=" M 282.00 558.00  C 278.61 551.45 272.92 547.02 267.75 541.25 C 262.58 535.48 258.00 532.58 252.75 526.25 C 247.51 519.92 243.23 519.04 237.75 511.25 C 232.27 503.46 226.31 504.57 223.30 513.30 C 220.30 522.04 215.18 524.42 211.92 531.92 C 208.66 539.42 203.71 543.32 200.30 550.31 C 196.90 557.29 192.13 562.76 190.00 570.00 C 199.96 568.78 209.67 566.69 220.00 567.00 C 235.85 681.26 342.96 778.84 459.00 781.00 C 453.78 767.25 446.45 754.33 440.00 741.00 C 349.64 731.31 269.77 652.26 256.00 563.00 C 264.30 559.95 273.66 560.87 282.00 558.00 Z" data-index="83"/>
</g>
<g fill="#F8DEC9" fill-opacity="1.00" stroke="None">
<path d=" M 494.00 531.00  C 492.36 534.04 490.38 536.80 489.00 540.00 C 488.22 541.81 486.60 544.39 486.00 546.00 C 485.42 548.25 485.68 550.82 485.00 553.00 C 489.33 546.96 490.54 537.03 496.25 531.25 C 501.96 525.47 507.87 520.89 513.75 515.75 C 519.63 510.61 529.46 507.39 534.00 505.00 C 518.33 509.37 504.39 517.70 494.00 531.00 Z" data-index="84"/>
</g>
<g fill="#ECC086" fill-opacity="1.00" stroke="None">
<path d=" M 766.00 522.00  C 768.47 517.34 770.27 512.19 772.00 507.00 C 769.72 511.76 767.59 516.56 766.00 522.00 Z" data-index="85"/>
</g>
<g fill="#E8B87D" fill-opacity="1.00" stroke="None">
<path d=" M 759.00 536.00  C 761.19 532.43 763.64 529.28 765.00 525.00 C 763.35 528.48 760.82 532.28 759.00 536.00 Z" data-index="86"/>
</g>
<g fill="#E2A483" fill-opacity="1.00" stroke="None">
<path d=" M 486.00 546.00  C 486.60 544.39 488.22 541.81 489.00 540.00 C 487.86 541.96 486.63 543.58 486.00 546.00 Z" data-index="87"/>
</g>
<g fill="#ECBB8A" fill-opacity="1.00" stroke="None">

</g>
<g fill="#F8DFC9" fill-opacity="1.00" stroke="None">
<path d=" M 641.00 644.00  C 642.33 643.82 643.69 643.40 645.00 643.00 C 658.76 638.76 673.47 629.66 685.00 621.00 C 692.00 615.75 699.13 609.87 706.00 604.00 C 714.18 595.82 723.40 586.30 730.25 577.25 C 737.10 568.19 748.43 559.14 751.00 548.00 C 744.36 553.08 739.29 565.33 732.97 571.97 C 726.65 578.61 721.07 587.45 713.25 594.25 C 705.43 601.05 699.50 607.15 691.75 613.75 C 683.99 620.34 674.38 623.68 667.75 629.75 C 661.12 635.83 647.30 637.83 641.00 644.00 Z" data-index="89" style="visibility: hidden;"/>
</g>
<g fill="#F5D2BE" fill-opacity="1.00" stroke="None">

</g>
<g fill="#FADDD7" fill-opacity="1.00" stroke="None">
<path d=" M 283.00 575.00  C 283.53 573.07 281.95 571.76 282.00 570.00 C 283.40 569.68 284.94 568.34 286.00 568.00 C 280.18 569.29 281.40 570.95 283.00 575.00 Z" data-index="91" style="visibility: hidden;"/>
</g>
<g fill="#E49D7E" fill-opacity="1.00" stroke="None">
<path d=" M 485.00 596.00  C 484.83 595.08 485.00 593.93 485.00 593.00 C 485.00 593.00 485.00 592.50 485.00 592.00 C 484.56 591.22 483.26 589.83 483.00 589.00 C 483.37 591.62 484.18 593.85 485.00 596.00 Z" data-index="92"/>
</g>
<g fill="#F7DBCD" fill-opacity="1.00" stroke="None">

</g>
<g fill="#E7732E" fill-opacity="1.00" stroke="None">
<path d=" M 685.00 621.00  C 673.47 629.66 658.76 638.76 645.00 643.00 C 639.91 645.33 633.41 647.84 630.00 653.00 C 627.76 652.44 625.52 651.62 623.00 652.00 C 619.81 652.04 617.29 653.22 614.00 653.00 C 614.00 653.00 613.50 652.98 613.00 653.00 C 612.44 653.31 610.54 654.89 610.00 655.00 C 611.93 653.06 610.87 658.75 608.00 657.00 C 612.38 661.26 608.14 665.14 611.00 670.00 C 604.97 671.74 608.77 676.60 609.00 681.00 C 619.72 682.38 630.93 681.99 642.00 682.00 C 672.95 680.82 701.28 669.68 727.00 654.00 C 727.98 651.52 725.65 648.18 729.00 645.00 C 723.94 644.22 727.58 636.54 728.00 633.00 C 722.20 632.94 725.86 629.59 727.00 627.00 C 723.69 625.75 720.63 622.77 723.00 621.00 C 719.28 621.67 715.64 620.72 718.00 617.00 C 712.46 621.99 704.04 623.52 699.00 617.00 C 694.66 619.50 691.13 617.55 685.00 621.00 Z" data-index="94"/>
</g>
<g fill="#DE9A82" fill-opacity="1.00" stroke="None">
<path d=" M 517.00 646.00  C 520.02 647.74 523.00 649.50 526.00 651.00 C 517.91 645.56 508.73 637.72 502.00 630.00 C 505.98 635.35 511.94 641.59 517.00 646.00 Z" data-index="95"/>
</g>
<g fill="#C85F32" fill-opacity="1.00" stroke="None">
<path d=" M 729.00 653.00  C 733.49 651.47 742.81 643.75 746.00 644.00 C 746.17 643.73 746.75 643.26 747.00 643.00 C 745.77 640.48 740.59 646.08 738.70 647.70 C 736.80 649.32 731.05 651.43 729.00 653.00 Z" data-index="96"/>
</g>
<g fill="#E3996B" fill-opacity="1.00" stroke="None">
<path d=" M 641.00 644.00  C 641.00 644.00 640.49 643.92 640.00 644.00 C 635.74 647.42 627.99 650.55 623.00 652.00 C 625.52 651.62 627.76 652.44 630.00 653.00 C 633.41 647.84 639.91 645.33 645.00 643.00 C 643.69 643.40 642.33 643.82 641.00 644.00 Z" data-index="97"/>
</g>
<g fill="#F4D4BA" fill-opacity="1.00" stroke="None">

</g>
<g fill="#F0C1AC" fill-opacity="1.00" stroke="None">
<path d=" M 607.00 655.00  C 607.91 655.02 609.12 655.18 610.00 655.00 C 610.54 654.89 612.44 653.31 613.00 653.00 C 610.52 653.09 608.90 654.56 607.00 655.00 Z" data-index="99"/>
</g>
<g fill="#DE5631" fill-opacity="1.00" stroke="None">
<path d=" M 642.00 682.00  C 630.93 681.99 619.72 682.38 609.00 681.00 C 608.77 676.60 604.97 671.74 611.00 670.00 C 608.14 665.14 612.38 661.26 608.00 657.00 C 610.87 658.75 611.93 653.06 610.00 655.00 C 609.12 655.18 607.91 655.02 607.00 655.00 C 597.22 654.74 587.79 658.47 578.00 659.00 C 571.59 660.04 563.35 660.58 557.00 659.00 C 555.66 658.89 554.78 658.16 554.00 658.00 C 552.36 658.00 550.63 658.15 549.00 658.00 C 543.81 657.51 537.85 655.74 533.00 654.00 C 549.56 662.46 561.67 671.77 580.78 676.22 C 599.89 680.67 621.51 684.93 642.00 682.00 Z" data-index="100"/>
</g>
<g fill="#F6BCAC" fill-opacity="1.00" stroke="None">

</g>
<g fill="#C97A63" fill-opacity="1.00" stroke="None">
<path d=" M 578.00 659.00  C 572.70 659.29 567.31 659.00 562.00 659.00 C 560.35 659.00 558.64 659.13 557.00 659.00 C 563.35 660.58 571.59 660.04 578.00 659.00 Z" data-index="102"/>
</g>
<g fill="#CF9392" fill-opacity="1.00" stroke="None">
<path d=" M 547.00 764.00  C 537.67 764.00 528.33 764.00 519.00 764.00 C 527.74 764.85 538.19 764.85 547.00 764.00 Z" data-index="103"/>
</g>
</svg>